<svg width="31" height="24" viewBox="0 0 31 24" fill="none" xmlns="http://www.w3.org/2000/svg">
<path d="M30.5816 5.41079L27.0537 16.5975C26.7899 17.3942 26.0975 17.9253 25.2733 17.9253H11.6562C10.8649 17.9253 10.1066 17.4274 9.84283 16.6971L4.63341 2.6556H1.63305C0.907687 2.6556 0.314209 2.05809 0.314209 1.3278C0.314209 0.59751 0.907687 0 1.63305 0H5.5566C6.11711 0 6.61167 0.365145 6.8095 0.896265L12.1838 15.2697H24.7128L27.5153 6.30705H11.9859C11.2606 6.30705 10.6671 5.70954 10.6671 4.97925C10.6671 4.24896 11.2606 3.65145 11.9859 3.65145H29.3287C29.7573 3.65145 30.153 3.88382 30.3838 4.21577C30.6475 4.54772 30.7135 5.01245 30.5816 5.41079ZM12.3157 19.6846C11.7552 19.6846 11.1946 19.917 10.799 20.3153C10.4033 20.7137 10.1725 21.278 10.1725 21.8423C10.1725 22.4066 10.4033 22.971 10.799 23.3693C11.1946 23.7676 11.7552 24 12.3157 24C12.8762 24 13.4367 23.7676 13.8323 23.3693C14.228 22.971 14.4588 22.4066 14.4588 21.8423C14.4588 21.278 14.228 20.7137 13.8323 20.3153C13.4367 19.917 12.8762 19.6846 12.3157 19.6846ZM24.1523 19.6846C23.5917 19.6846 23.0312 19.917 22.6356 20.3153C22.2399 20.7137 22.0091 21.278 22.0091 21.8423C22.0091 22.4066 22.2399 22.971 22.6356 23.3693C23.0312 23.7676 23.5917 24 24.1523 24C24.7128 24 25.2733 23.7676 25.6689 23.3693C26.0646 22.971 26.2954 22.4066 26.2954 21.8423C26.2954 21.278 26.0646 20.7137 25.6689 20.3153C25.2733 19.917 24.7128 19.6846 24.1523 19.6846Z" fill="white"/>
</svg>
