<svg width="86" height="86" viewBox="0 0 86 86" fill="none" xmlns="http://www.w3.org/2000/svg">
<path fill-rule="evenodd" clip-rule="evenodd" d="M37.2005 0.285889C26.7824 3.75859 4.07085 15.288 0.737057 33.6238C-3.43018 56.5437 11.1552 73.2126 17.406 77.3799V68.0036C14.2806 65.5727 8.02977 58.2106 8.02977 48.2092H28.866V85.7143H37.2005V48.2092H49.7022V85.7143C61.5094 83.2835 85.1238 71.129 85.1238 41.9583H67.413V48.2092H76.7893C76.7893 54.8073 72.622 69.4621 55.9531 75.2962V10.704C60.1203 12.0931 69.9133 17.7883 75.7475 29.4566H83.0401C80.6092 22.1639 70.5384 6.12003 49.7022 0.285889V41.9583H37.2005V0.285889ZM28.8661 41.9583V10.704C21.2262 14.8712 6.15464 26.9562 6.98809 41.9583H28.8661Z" fill="white"/>
</svg>
