<svg width="21" height="24" viewBox="0 0 21 24" fill="none" xmlns="http://www.w3.org/2000/svg">
<path d="M10.219 11.5895C9.07174 11.5897 7.95018 11.25 6.99618 10.6133C6.04217 9.97668 5.29858 9.07172 4.85943 8.01287C4.42027 6.95403 4.30529 5.78888 4.52902 4.66475C4.75274 3.54062 5.30513 2.50802 6.11632 1.69753C6.92752 0.887038 7.96108 0.335061 9.0863 0.111405C10.2115 -0.112251 11.3779 0.00245866 12.4378 0.441027C13.4978 0.879596 14.4038 1.62232 15.0412 2.57529C15.6786 3.52825 16.0188 4.64864 16.0188 5.79477C16.0173 7.33105 15.4058 8.804 14.3185 9.89039C13.2312 10.9768 11.7568 11.5879 10.219 11.5895ZM10.219 1.67111C9.40239 1.67096 8.60407 1.91274 7.925 2.36588C7.24594 2.81902 6.71665 3.46316 6.40407 4.21684C6.09149 4.97051 6.00966 5.79987 6.16894 6.6C6.32822 7.40014 6.72144 8.13512 7.29888 8.71198C7.87632 9.28884 8.61203 9.68167 9.41297 9.84079C10.2139 9.99991 11.0441 9.91816 11.7985 9.6059C12.553 9.29363 13.1977 8.76486 13.6513 8.08648C14.1049 7.4081 14.347 6.61057 14.3468 5.79477C14.3455 4.70149 13.9102 3.65335 13.1364 2.88029C12.3626 2.10723 11.3134 1.67237 10.219 1.67111ZM19.4783 24H0.959776L0.123779 23.1648C0.123779 21.8404 0.3849 20.529 0.892234 19.3054C1.39957 18.0818 2.14318 16.9701 3.08061 16.0336C4.01803 15.0971 5.13093 14.3542 6.35574 13.8474C7.58055 13.3406 8.89329 13.0797 10.219 13.0797C11.5447 13.0797 12.8575 13.3406 14.0823 13.8474C15.3071 14.3542 16.42 15.0971 17.3574 16.0336C18.2949 16.9701 19.0385 18.0818 19.5458 19.3054C20.0531 20.529 20.3143 21.8404 20.3143 23.1648L19.4783 24ZM1.83532 22.3297H18.6027C18.3983 20.2501 17.4267 18.3209 15.8771 16.9175C14.3275 15.514 12.3107 14.7366 10.219 14.7366C8.12737 14.7366 6.11053 15.514 4.56092 16.9175C3.01131 18.3209 2.03976 20.2501 1.83532 22.3297Z" fill="white"/>
</svg>
