<svg width="25" height="24" viewBox="0 0 25 24" fill="none" xmlns="http://www.w3.org/2000/svg">
<path d="M23.9199 21.713L19.3881 17.1945C20.8502 15.3317 21.6436 13.0313 21.6407 10.6632C21.6407 8.55425 21.0153 6.49262 19.8436 4.73906C18.6719 2.9855 17.0065 1.61877 15.0581 0.811695C13.1096 0.00462018 10.9656 -0.206547 8.89715 0.204896C6.82869 0.616339 4.92868 1.63191 3.4374 3.12319C1.94612 4.61447 0.930548 6.51448 0.519105 8.58294C0.107662 10.6514 0.318829 12.7954 1.1259 14.7439C1.93298 16.6923 3.29971 18.3577 5.05327 19.5294C6.80683 20.7011 8.86846 21.3265 10.9774 21.3265C13.3456 21.3294 15.6459 20.536 17.5087 19.0739L22.0272 23.6057C22.1511 23.7307 22.2985 23.8298 22.461 23.8975C22.6234 23.9652 22.7976 24 22.9736 24C23.1495 24 23.3238 23.9652 23.4862 23.8975C23.6486 23.8298 23.796 23.7307 23.9199 23.6057C24.0449 23.4818 24.144 23.3344 24.2117 23.172C24.2794 23.0095 24.3142 22.8353 24.3142 22.6594C24.3142 22.4834 24.2794 22.3092 24.2117 22.1468C24.144 21.9843 24.0449 21.8369 23.9199 21.713ZM2.98002 10.6632C2.98002 9.08149 3.44906 7.53527 4.32783 6.2201C5.2066 4.90494 6.45562 3.87989 7.91696 3.27458C9.3783 2.66927 10.9863 2.5109 12.5377 2.81948C14.089 3.12806 15.514 3.88974 16.6325 5.0082C17.7509 6.12666 18.5126 7.55167 18.8212 9.10301C19.1298 10.6544 18.9714 12.2624 18.3661 13.7237C17.7608 15.1851 16.7357 16.4341 15.4206 17.3128C14.1054 18.1916 12.5592 18.6607 10.9774 18.6607C8.85639 18.6607 6.82222 17.8181 5.32241 16.3183C3.8226 14.8185 2.98002 12.7843 2.98002 10.6632Z" fill="white"/>
</svg>
